<svg xmlns="http://www.w3.org/2000/svg" viewBox="0 0 24 24" fill="currentColor">
  <path d="M12 .5C5.7.5 0 6.2 0 12.5c0 5.5 3.6 10.1 8.5 11.7.6.1.8-.3.8-.6 0-.3 0-1.2 0-2.4-3.5.8-4.3-1.7-4.3-1.7-.6-1.5-1.5-1.9-1.5-1.9-1.2-.8 0-.8 0-.8 1.3 0 2.1 1.3 2.1 1.3 1.2 2 3 1.4 3.7 1 .1-.9.5-1.4.9-1.7-2.8-.3-5.7-1.4-5.7-6.2 0-1.4.5-2.5 1.3-3.4-.1-.3-.6-1.5.1-3.1 0 0 1.1-.4 3.6 1.4 1-.3 2.1-.5 3.2-.5 1.1 0 2.2.2 3.2.5 2.5-1.8 3.6-1.4 3.6-1.4.7 1.6.2 2.8.1 3.1.8.9 1.3 2 1.3 3.4 0 4.8-2.9 5.9-5.7 6.2.5.4.9 1.2.9 2.4 0 1.7 0 3.1 0 3.5 0 .3.2.7.8.6C20.4 22.6 24 18.1 24 12.5 24 6.2 18.3.5 12 .5z"/>
</svg>