<svg xmlns="http://www.w3.org/2000/svg" viewBox="0 0 24 24" fill="none" stroke="currentColor" stroke-width="2" stroke-linecap="round" stroke-linejoin="round">
  <path d="M12 2C6.48 2 2 6.48 2 12c0 4.41 3.44 8.06 7.91 8.94.58.11.79-.25.79-.56 0-.28-.01-1.03-.01-2.02-3.21.7-3.9-1.55-3.9-1.55-.53-1.34-1.29-1.7-1.29-1.7-1.06-.72.08-.71.08-.71 1.17.08 1.79 1.2 1.79 1.2 1.04 1.78 2.73 1.27 3.4.97.1-.75.41-1.27.74-1.56-2.66-.3-5.46-1.33-5.46-5.93 0-1.31.47-2.39 1.24-3.24-.12-.3-.54-1.52.12-3.17 0 0 1.01-.32 3.3 1.23.96-.27 1.99-.4 3.01-.4 1.02 0 2.05.14 3.01.4 2.29-1.55 3.3-1.23 3.3-1.23.66 1.65.24 2.87.12 3.17.77.85 1.24 1.93 1.24 3.24 0 4.62-2.81 5.63-5.48 5.93.42.36.79 1.07.79 2.15 0 1.55-.01 2.8-.01 3.18 0 .31.21.68.79.56C20.56 20.06 24 16.41 24 12c0-5.52-4.48-10-10-10z"/>
</svg>