<svg xmlns="http://www.w3.org/2000/svg" viewBox="0 0 24 24" fill="none" stroke="currentColor" stroke-width="2" stroke-linecap="round" stroke-linejoin="round">
  <path d="M23 3a10.9 10.9 0 01-3.14.86A4.48 4.48 0 0022.4 1.6a9.1 9.1 0 01-2.87 1.1A4.48 4.48 0 0016.16 0c-2.48 0-4.48 2-4.48 4.48 0 .35.04.69.1 1.02A12.7 12.7 0 011.67 1.15a4.48 4.48 0 00-.6 2.25c0 1.56.79 2.94 1.98 3.75A4.48 4.48 0 01.96 6.5v.06c0 2.17 1.55 3.98 3.6 4.39a4.48 4.48 0 01-2.02.08c.57 1.78 2.23 3.08 4.19 3.12A9.05 9.05 0 010 19.54a12.7 12.7 0 006.9 2.02c8.27 0 12.78-6.85 12.78-12.78 0-.2 0-.39-.01-.58A9.1 9.1 0 0023 3z"/>
</svg>